<svg width="24" height="27" viewBox="0 0 24 27" fill="none" xmlns="http://www.w3.org/2000/svg">
<path d="M12.275 20.788C12.475 20.7704 12.6458 20.687 12.7875 20.5377C12.9292 20.3884 13 20.2083 13 19.9975C13 19.7516 12.925 19.5539 12.775 19.4046C12.625 19.2553 12.4333 19.1894 12.2 19.207C11.5167 19.2597 10.7917 19.0621 10.025 18.6141C9.25833 18.1662 8.775 17.3537 8.575 16.1767C8.54167 15.9835 8.45417 15.8254 8.3125 15.7024C8.17083 15.5795 8.00833 15.518 7.825 15.518C7.59167 15.518 7.4 15.6102 7.25 15.7947C7.1 15.9791 7.05 16.1943 7.1 16.4402C7.38333 18.0388 8.05 19.1806 9.1 19.8657C10.15 20.5508 11.2083 20.8583 12.275 20.788ZM12 23.95C9.71667 23.95 7.8125 23.1244 6.2875 21.4731C4.7625 19.8218 4 17.7665 4 15.3072C4 13.5505 4.6625 11.6402 5.9875 9.57607C7.3125 7.51199 9.31667 5.27663 12 2.87C14.6833 5.27663 16.6875 7.51199 18.0125 9.57607C19.3375 11.6402 20 13.5505 20 15.3072C20 17.7665 19.2375 19.8218 17.7125 21.4731C16.1875 23.1244 14.2833 23.95 12 23.95ZM12 21.842C13.7333 21.842 15.1667 21.2228 16.3 19.9843C17.4333 18.7459 18 17.1868 18 15.3072C18 14.0248 17.4958 12.5756 16.4875 10.9594C15.4792 9.34331 13.9833 7.57786 12 5.66309C10.0167 7.57786 8.52083 9.34331 7.5125 10.9594C6.50417 12.5756 6 14.0248 6 15.3072C6 17.1868 6.56667 18.7459 7.7 19.9843C8.83333 21.2228 10.2667 21.842 12 21.842Z" fill="#ACACAC"/>
</svg>
