<svg width="200" height="200" viewBox="0 0 200 200" fill="none" xmlns="http://www.w3.org/2000/svg">
<g filter="url(#filter0_d_1_20)">
<path d="M91.6666 41.6667V8.33333H108.333V41.6667H91.6666ZM147.083 64.5833L135.625 53.125L158.958 29.1667L170.625 41.0417L147.083 64.5833ZM158.333 108.333V91.6667H191.667V108.333H158.333ZM91.6666 191.667V158.333H108.333V191.667H91.6666ZM52.9166 64.1667L29.1666 41.0417L41.0416 29.375L64.5833 52.9167L52.9166 64.1667ZM158.75 170.833L135.625 146.875L146.875 135.625L170.625 158.542L158.75 170.833ZM8.33325 108.333V91.6667H41.6666V108.333H8.33325ZM41.0416 170.833L29.3749 158.958L52.7083 135.625L58.7499 141.25L64.7916 147.083L41.0416 170.833ZM99.9999 150C86.111 150 74.3055 145.139 64.5833 135.417C54.861 125.694 49.9999 113.889 49.9999 100C49.9999 86.1111 54.861 74.3055 64.5833 64.5833C74.3055 54.8611 86.111 50 99.9999 50C113.889 50 125.694 54.8611 135.417 64.5833C145.139 74.3055 150 86.1111 150 100C150 113.889 145.139 125.694 135.417 135.417C125.694 145.139 113.889 150 99.9999 150ZM99.9999 133.333C109.167 133.333 117.014 130.069 123.542 123.542C130.069 117.014 133.333 109.167 133.333 100C133.333 90.8333 130.069 82.9861 123.542 76.4583C117.014 69.9305 109.167 66.6667 99.9999 66.6667C90.8333 66.6667 82.986 69.9305 76.4583 76.4583C69.9305 82.9861 66.6666 90.8333 66.6666 100C66.6666 109.167 69.9305 117.014 76.4583 123.542C82.986 130.069 90.8333 133.333 99.9999 133.333Z" fill="#FFD23F"/>
</g>
<defs>
<filter id="filter0_d_1_20" x="4.33325" y="8.33333" width="191.333" height="191.333" filterUnits="userSpaceOnUse" color-interpolation-filters="sRGB">
<feFlood flood-opacity="0" result="BackgroundImageFix"/>
<feColorMatrix in="SourceAlpha" type="matrix" values="0 0 0 0 0 0 0 0 0 0 0 0 0 0 0 0 0 0 127 0" result="hardAlpha"/>
<feOffset dy="4"/>
<feGaussianBlur stdDeviation="2"/>
<feComposite in2="hardAlpha" operator="out"/>
<feColorMatrix type="matrix" values="0 0 0 0 1 0 0 0 0 0.823529 0 0 0 0 0.247059 0 0 0 0.25 0"/>
<feBlend mode="normal" in2="BackgroundImageFix" result="effect1_dropShadow_1_20"/>
<feBlend mode="normal" in="SourceGraphic" in2="effect1_dropShadow_1_20" result="shape"/>
</filter>
</defs>
</svg>
