<svg width="24" height="26" viewBox="0 0 24 26" fill="none" xmlns="http://www.w3.org/2000/svg">
<path d="M9 3.436V1.328H15V3.436H9ZM11 15.03H13V8.706H11V15.03ZM12 23.462C10.7667 23.462 9.60417 23.2117 8.5125 22.711C7.42083 22.2104 6.46667 21.5297 5.65 20.6689C4.83333 19.8081 4.1875 18.8024 3.7125 17.6518C3.2375 16.5012 3 15.2759 3 13.976C3 12.6761 3.2375 11.4508 3.7125 10.3002C4.1875 9.14956 4.83333 8.14387 5.65 7.2831C6.46667 6.42234 7.42083 5.74163 8.5125 5.24098C9.60417 4.74033 10.7667 4.49 12 4.49C13.0333 4.49 14.025 4.66567 14.975 5.017C15.925 5.36834 16.8167 5.87777 17.65 6.5453L19.05 5.0697L20.45 6.5453L19.05 8.0209C19.6833 8.89924 20.1667 9.83905 20.5 10.8404C20.8333 11.8417 21 12.8869 21 13.976C21 15.2759 20.7625 16.5012 20.2875 17.6518C19.8125 18.8024 19.1667 19.8081 18.35 20.6689C17.5333 21.5297 16.5792 22.2104 15.4875 22.711C14.3958 23.2117 13.2333 23.462 12 23.462ZM12 21.354C13.9333 21.354 15.5833 20.6338 16.95 19.1933C18.3167 17.7528 19 16.0137 19 13.976C19 11.9383 18.3167 10.1992 16.95 8.7587C15.5833 7.31824 13.9333 6.598 12 6.598C10.0667 6.598 8.41667 7.31824 7.05 8.7587C5.68333 10.1992 5 11.9383 5 13.976C5 16.0137 5.68333 17.7528 7.05 19.1933C8.41667 20.6338 10.0667 21.354 12 21.354Z" fill="#ACACAC"/>
</svg>
