<svg width="24" height="26" viewBox="0 0 24 26" fill="none" xmlns="http://www.w3.org/2000/svg">
<path d="M11.5 21.33C10.6667 21.33 9.95833 21.0226 9.375 20.4077C8.79167 19.7929 8.5 19.0463 8.5 18.168H10.5C10.5 18.4666 10.5958 18.7169 10.7875 18.919C10.9792 19.121 11.2167 19.222 11.5 19.222C11.7833 19.222 12.0208 19.121 12.2125 18.919C12.4042 18.7169 12.5 18.4666 12.5 18.168C12.5 17.8694 12.4042 17.619 12.2125 17.417C12.0208 17.215 11.7833 17.114 11.5 17.114H2V15.006H11.5C12.3333 15.006 13.0417 15.3134 13.625 15.9282C14.2083 16.5431 14.5 17.2897 14.5 18.168C14.5 19.0463 14.2083 19.7929 13.625 20.4077C13.0417 21.0226 12.3333 21.33 11.5 21.33ZM2 10.79V8.68199H15.5C15.9333 8.68199 16.2917 8.53267 16.575 8.23404C16.8583 7.9354 17 7.55772 17 7.10099C17 6.64425 16.8583 6.26657 16.575 5.96794C16.2917 5.6693 15.9333 5.51999 15.5 5.51999C15.0667 5.51999 14.7083 5.6693 14.425 5.96794C14.1417 6.26657 14 6.64425 14 7.10099H12C12 6.06455 12.3375 5.19061 13.0125 4.47916C13.6875 3.76771 14.5167 3.41199 15.5 3.41199C16.4833 3.41199 17.3125 3.76771 17.9875 4.47916C18.6625 5.19061 19 6.06455 19 7.10099C19 8.13742 18.6625 9.01136 17.9875 9.72281C17.3125 10.4343 16.4833 10.79 15.5 10.79H2ZM18.5 19.222V17.114C18.9333 17.114 19.2917 16.9647 19.575 16.666C19.8583 16.3674 20 15.9897 20 15.533C20 15.0763 19.8583 14.6986 19.575 14.3999C19.2917 14.1013 18.9333 13.952 18.5 13.952H2V11.844H18.5C19.4833 11.844 20.3125 12.1997 20.9875 12.9112C21.6625 13.6226 22 14.4966 22 15.533C22 16.5694 21.6625 17.4434 20.9875 18.1548C20.3125 18.8663 19.4833 19.222 18.5 19.222Z" fill="#ACACAC"/>
</svg>
